<?xml version="1.0" encoding="UTF-8"?> <svg xmlns="http://www.w3.org/2000/svg" id="Layer_1" version="1.1" viewBox="0 0 84.3 20.7"><path d="M36.2,19V7h0l-4.8,11.9h-1.9l-4.8-11.9h0v11.9h-2.2V2.8h2.8l5.1,12.9h0l5.1-12.9h2.9v16.1h-2.3ZM50.9,19h-2.3v-2h0c-.6,1.4-1.9,2.2-3.6,2.2-2.6,0-4.1-1.7-4.1-4.4v-7.6h2.4v7.1c0,1.8.9,2.7,2.5,2.7s2.7-1.2,2.7-3.1v-6.8h2.4v11.8h0ZM57.5,7c2.7,0,4.4,1.5,4.5,3.7h-2.2c-.2-1.1-1-1.9-2.3-1.9s-2.2.6-2.2,1.6.5,1.2,1.8,1.5l1.9.4c2.4.5,3.3,1.5,3.3,3.2s-1.9,3.6-4.7,3.6-4.7-1.4-4.9-3.7h2.4c.2,1.2,1.1,1.9,2.5,1.9s2.3-.6,2.3-1.6-.4-1.2-1.7-1.5l-1.9-.4c-2.2-.5-3.3-1.6-3.3-3.4,0-2,1.8-3.4,4.5-3.4ZM63.9,4c0-.8.6-1.4,1.4-1.4s1.4.6,1.4,1.4-.6,1.4-1.4,1.4-1.4-.6-1.4-1.4h0ZM64.1,7.1h2.4v11.8h-2.4V7.1ZM76.5,11.2c-.3-1.2-1.1-2.3-2.7-2.3s-3.1,1.6-3.1,4.1,1.2,4.1,3.1,4.1,2.4-.8,2.7-2.2h2.3c-.3,2.5-2.2,4.2-5,4.2s-5.5-2.3-5.5-6.1,2.1-6.1,5.5-6.1,4.8,1.9,5,4.2h-2.3ZM15.1,4.4c-.6.7-1.6,1.3-2.6,1.2-.2-1.1.4-2.1.9-2.7.6-.8,1.7-1.3,2.6-1.3,0,1-.3,2-.9,2.8h0ZM16,5.8c.5,0,2.1.2,3.2,1.8,0,0-1.9,1.1-1.9,3.4s2.3,3.5,2.3,3.5c0,0-.4,1.2-1.1,2.5-.7,1.1-1.5,2.1-2.6,2.1s-1.5-.7-2.8-.7-1.8.7-2.8.7-2-1.1-2.7-2.2c-1.5-2.2-2.6-6.2-1.1-8.8.7-1.3,2.1-2.2,3.5-2.2s2.2.8,2.8.8c.6,0,1.9-.9,3.3-.8h0Z"></path></svg> 