<?xml version="1.0" encoding="UTF-8"?> <svg xmlns="http://www.w3.org/2000/svg" id="Layer_1" version="1.1" viewBox="0 0 171 48.5"><defs><style> .st0 { fill: #282828; } </style></defs><path id="Logo" class="st0" d="M127.7,25c0,1.7-.5,3.5-1.2,5.1-1.2,2.3-3.5,3-4.5-.3-.6-2.4-.6-4.9-.2-7.4.4-2.6,1.5-4.5,3.4-4.3s2.7,2.6,2.5,6.9M96.7,38.4c0,3.6-.6,6.7-1.8,7.6-1.7,1.3-4.1.4-3.5-2.3.4-2.3,2.4-4.7,5.3-7.5v2.2M96.1,25c0,1.7-.5,3.4-1.2,5.1-1.2,2.3-3.5,3-4.5-.3-.6-2.3-.6-4.7-.2-7.1.4-2.4,1.5-4.6,3.4-4.6s2.7,2,2.5,6.9M78.1,25c0,1.7-.4,3.5-1.2,5.1-1.2,2.3-3.5,3-4.5-.3-.6-2.4-.6-5-.2-7.4.4-2.6,1.6-4.4,3.4-4.3s2.7,2.6,2.5,6.9M160.5,27.4c-.4,0-.6.4-.8,1.2-.6,2.7-1.2,3.4-2,3.4s-1.7-1.3-1.9-4.1c-.2-3.3-.2-6.6,0-9.9,0-.8-.2-1.6-2.3-2.4-.9-.4-2.2-.8-2.9.8-1.3,3.1-2.2,6.3-2.7,9.6,0,0,0,0,0,0-.3-2.6-.4-5.2-.4-7.8,0-.9-.4-1.8-1.2-2.2-.6-.4-2.5-1.1-3.2-.3s-1.2,2.5-1.9,4.7c-.6,1.8-1,2.9-1,2.9v-6.6c0-.4-.2-.8-.6-1-.8-.3-1.6-.4-2.4-.5-.6,0-.8.4-.8.9s0,6.3,0,10.5v.6c-.4,1.9-1.5,4.7-2.8,4.7s-1.9-1.2-1.9-6.3,0-4.3.2-6.5c0-1.2,0-2.2,0-2.5,0-.7-1.2-1-1.7-1.2-.5,0-.9-.2-1.4-.2-.5,0-.9.3-.9.8,0,0,0,0,0,.1v.7c-.6-.9-1.5-1.6-2.5-2-2.1-.6-4.3.2-5.5,2-1.3,1.9-2.1,4.1-2.2,6.4-.2,1.9-.1,3.9.3,5.8-.4,1.9-1.3,2.7-2.2,2.7-1.3,0-2.3-2.1-2.2-5.9.1-2.3.5-4.5,1.2-6.7.3-.7,0-1.6-.4-2.1-.8-.6-1.8-.7-2.7-.4-1.1.3-2.3.5-3.5.6,0-.3.1-.5.2-.8.4-2.7-2.7-2.5-3.6-1.6-.6.6-1,1.4-1.1,2.2-.2,1,.3,2,1.2,2.6-.6,2.5-1.5,4.8-2.8,7-.6,1.1-1.2,1.9-1.8,2.7v-1c0-4.5,0-8.1,0-9.3s0-2.2,0-2.4c0-.4-.3-.7-.9-.9-.6-.2-1.2-.3-1.8-.4-.8,0-1.3.4-1.3.9v.7c-.6-.9-1.5-1.6-2.5-2-2.1-.6-4.3.2-5.5,2-1.3,1.9-2,4-2.2,6.3-.2,1.8-.2,3.6,0,5.4-.3,1.5-1.2,3.1-2.2,3.1s-2-1.2-2-6.3,0-4.3.2-6.5c0-1.2,0-2.2,0-2.5,0-.7-1.2-1-1.7-1.2-.5-.1-.9-.2-1.4-.2-.4,0-.8.3-.8.8,0,0,0,0,0,0v.7c-.6-.9-1.5-1.6-2.5-2-2.1-.6-4.3.2-5.5,2-1.3,1.9-2.1,4-2.2,6.3,0,1-.2,1.9-.2,2.7-.4,2.4-2.1,5.2-3.5,5.2s-1.7-1.6-1.7-5.1.3-11.3.4-11.9h2.1c.9,0,1.7,0,2.9,0,.6,0,1.2-2.2.5-2.5-1-.2-2.1-.2-3.1-.3-.7,0-2.5-.2-2.5-.2,0,0,.2-4.3.2-4.9s-.4-.6-.7-.7c-.7-.2-1.3-.5-2-.6-1.1-.2-1.5,0-1.6.9-.2,1.3-.2,5.1-.2,5.1-.7,0-3.3-.2-4.1-.2s-1.4,3-.4,3,3,0,4.3,0c0,0,0,6.7,0,8.8v.6c-.4,2.2-1.5,4.2-3.2,5.7.5-2.4-.5-4.3-2.5-5.8-.7-.5-2.1-1.7-3.7-2.8.7-.8,1.3-1.7,1.8-2.7.6-1.3.6-2.7-.8-3.1-2.2-.4-4.3.9-4.9,3-.5,1.2-.2,2.6.7,3.5,0,0,.2.2.2.3-.5,1.1-1.2,2.4-1.9,3.5-1.7,2.9-3,5.3-4,5.3s-.8-2.4-.8-4.6.2-4.8.3-7.8c0-.9-.5-1.7-1.3-2-.7-.4-1.4-.7-2.2-.9-.9,0-3.6,0-6.2,7.4-.4.9-1,2.6-1,2.6v-8.9c0-.2,0-.4-.3-.5-.8-.4-1.7-.7-2.6-.7-.5,0-.7.3-.7.7v13.8c-.1.9,0,1.9,0,2.8,0,.4.2.9.4,1.2.2.3.5.5.8.5.4,0,2.4.4,2.5-.4.2-1.9.6-3.8,1.2-5.7,1.7-5.8,3.8-8.6,4.8-9.7.2-.2.4-.2.4,0,0,1.2-.2,4.4-.3,7.2-.3,7.2,1.1,8.6,2.9,8.6s3.5-1.4,5.6-5.1c1.3-2.2,2.7-4.4,3.6-6,.6.6,1.4,1.2,2.1,1.9,1.7,1.6,2.3,3.2,1.9,4.6-.3,1.2-1.3,2.3-3.3,1.2-.5-.4-.8-.6-1.3-1-.3-.2-.7-.2-1.1,0-.7.5-1.1,1.2-1.3,2-.3.8.6,1.2,1.5,1.7,1.1.4,2.2.6,3.4.7,4,.2,7.1-1.9,9.3-7.2.4,4.5,2,7.1,5,7.1s3.9-2.5,4.8-5c.2.9.6,1.8,1.1,2.7,2.2,3.5,6.6,2.8,8.8-.3.3-.4.6-.8.8-1.2.2,2.1,1.8,3.7,3.9,3.9,1.5,0,3-.7,4.1-3.1,0,.3.2.5.4.7,2.2,3.5,6.6,2.8,8.8-.3,0-.1.2-.3.3-.4v1.9c0,0-1.2,1.2-1.9,1.9-3.4,3.1-5.9,5.4-6.1,8.2-.3,3.5,2.6,4.8,4.7,5,2.2.1,4.3-1,5.4-2.8,1.1-1.5,1.8-4.9,1.7-8.2,0-1.3,0-3,0-4.8,1.4-1.6,2.7-3.3,3.7-5.1,1.4-2.4,2.6-4.9,3.5-7.5,0,0,1.2,0,2.6,0,.4,0,.5,0,.4.4s-1.7,6.5-.3,10.5c.6,2.1,2.4,3.6,4.5,3.7,1.6,0,3-1.2,3.8-2.9l.3.5c2.2,3.5,6.6,2.7,8.8-.3.3-.4.6-.8.8-1.2.2,2.1,1.9,3.8,4.1,3.9,1.4,0,2.7-.5,3.7-3,0,.8,0,1.6.3,2.3,0,.2.4.4.7.5,1,.3,2,.4,3,.2.4,0,.6-.4.6-1,0-1.8,0-4.8.6-7,.4-2.1,1.2-4.1,2.1-5.9.3-.4.4-.4.4,0,0,.9,0,3.4.4,6.8,0,1.5.4,3,.9,4.4.4,1,1.4,1.5,2.5,1.4.4,0,1.5-.2,1.4-1,0-2.2.3-4.5.9-6.6.5-1.9,1.2-3.7,1.9-5.4.2-.3.2,0,.2,0,0,1.7-.3,7.1.4,10,.9,4,3.5,4.4,4.5,4.4,1.9,0,3.5-1.5,4.1-5.4.3-.2,0-.9-.5-.9M17.5,5.6c-3.1,1.2-6.5,5-7.6,9.6-1.3,5.8,4.3,8.3,4.8,7.5.5-1-1.1-1.2-1.3-4.3-.4-3.9,1.4-8.3,3.7-10.2.4-.4.4.2.4,1.1,0,1.7,0,16.4,0,19.4s-.2,5.5-.4,6.7-.8,2.2-.4,2.6c.4.4,2.2-.5,3.3-2,1.2-1.9,1.8-4,1.8-6.2,0-2.7,0-7.2,0-9.7V7c0-1-2.8-1.9-4.2-1.4"></path></svg> 