<?xml version="1.0" encoding="UTF-8"?> <svg xmlns="http://www.w3.org/2000/svg" xmlns:xlink="http://www.w3.org/1999/xlink" id="Layer_1" version="1.1" viewBox="0 0 361 119"><defs><style> .st0 { mask: url(#mask); } .st1 { fill: #fff; } .st1, .st2, .st3 { fill-rule: evenodd; } .st2 { fill: url(#linear-gradient); } .st3 { fill: #242424; } </style><mask id="mask" x="316.9" y="34.7" width="41.1" height="39.4" maskUnits="userSpaceOnUse"><g id="mask-2"><polygon id="path-1" class="st1" points="358 34.7 358 74.1 316.9 74.1 316.9 34.7 358 34.7"></polygon></g></mask><linearGradient id="linear-gradient" x1="-122.7" y1="449" x2="-122.7" y2="448.1" gradientTransform="translate(12314.8 44911.4) scale(99.9 -100)" gradientUnits="userSpaceOnUse"><stop offset="0" stop-color="#0af"></stop><stop offset="1" stop-color="#25f"></stop></linearGradient></defs><g id="logo-lock-up-1"><g id="Group-Copy"><g id="Mark"><path id="Fill-1" class="st3" d="M122.4,66.7c0-2.9,3.6-6,4-5.7,2.5,2.3,7.4,4.5,11.6,4.5s5.4-1.1,5.4-3.1-3.1-2.4-7-3.2c-6.5-1.3-13.1-4.1-13.1-12.1s5.9-12.9,16.7-12.9,14.7,3.5,14.7,7.4-4.1,6.2-4.3,6c-2.6-2.4-6.6-4.2-10.3-4.2s-5.3,1.1-5.3,3,3.1,2.1,7.2,3c7.7,1.7,13.5,5,13.5,12.1s-5.9,13.2-17.6,13.2-15.6-3.9-15.6-8"></path><path id="Fill-3" class="st3" d="M159.6,68.5v-28.2c0-3.7,1.8-5.6,5.1-5.6h1.8c3.5,0,5.3,1.9,5.3,5.6v9h12.5v-9c0-3.7,1.8-5.6,5.1-5.6h1.8c3.4,0,5.3,1.9,5.3,5.6v28.2c0,3.7-1.8,5.6-5.3,5.6h-1.8c-3.3,0-5.1-1.9-5.1-5.6v-9.2h-12.5v9.2c0,3.7-1.8,5.6-5.3,5.6h-1.8c-3.3,0-5.1-1.9-5.1-5.6"></path><path id="Fill-5" class="st3" d="M239.7,69.1v-.5c0-3.5,1.2-4.7,3.2-6.9l14.9-16.7h-12.3c-3.5,0-5.3-1.3-5.3-4.7v-.5c0-3.3,1.8-4.7,5.3-4.7h21.9c4.4,0,6.2,2.3,6.2,4.7v.6c0,3.4-1.3,4.8-3.2,6.8l-15.2,16.7h13.4c3.5,0,5.3,1.3,5.3,4.7v.5c0,3.3-1.8,4.7-5.3,4.7h-22.8c-4.4,0-6.1-2.4-6.1-4.7"></path><path id="Fill-7" class="st3" d="M224.2,59.4c0,4.1-3.1,6.8-7.2,6.8s-4.8-1.5-4.8-3.9c0-3.9,5.4-5.6,9.4-5.7h2.7v2.7ZM217.3,34c-7.8,0-15.3,3.7-15.3,8.6s7.6,5.9,7.6,5.9c.8-3.3,3.6-5,7.1-5,5.5,0,7.5,2.7,7.5,6.5h-2.7c-15.7,0-21.6,6.2-21.6,13.3s5.8,11.4,13.3,11.4,10.3-1.9,11.3-5.6c.5,2.8,3.1,5.3,6.7,5.3s4.6-1.1,4.8-1.4v-23.8c0-9.7-6.6-15.2-18.7-15.2h0Z"></path><path id="Fill-9" class="st3" d="M300.6,59.4c0,4.1-3.1,6.8-7.2,6.8s-4.8-1.5-4.8-3.9c0-3.9,5.4-5.6,9.4-5.7h2.7v2.7ZM293.7,34c-7.8,0-15.3,3.7-15.3,8.6s7.6,5.9,7.6,5.9c.8-3.3,3.6-5,7.1-5,5.5,0,7.5,2.7,7.5,6.5h-2.7c-15.7,0-21.6,6.2-21.6,13.3s5.8,11.4,13.3,11.4,10.3-1.9,11.3-5.6c.5,2.8,3.1,5.3,6.7,5.3s4.6-1.1,4.8-1.4v-23.8c0-9.7-6.6-15.2-18.7-15.2h0Z"></path><g id="Group-13"><g class="st0"><path id="Fill-11" class="st3" d="M316.9,68.5v-28.1c0-3.8,1.9-5.8,5.4-5.8h3.4c3.2,0,4.3.8,5.4,3.2l6.3,15.5,6.4-15.5c1.1-2.6,2.4-3.2,5.2-3.2h3.4c3.6,0,5.6,1.9,5.6,5.8v28.1c0,3.7-1.3,5.6-4.7,5.6h-1.9c-3.3,0-4.7-1.9-4.7-5.6v-16.6l-4.1,11.4c-.5,1.5-.6,2.9-5.1,2.9s-4.4-1.4-5.1-2.9l-4-10.9v16.1c0,3.7-1.2,5.6-4.7,5.6h-1.9c-3.3,0-4.7-1.9-4.7-5.6"></path></g></g></g><g id="Logo"><path id="Base" class="st2" d="M54,5C26.4,5,4,27.4,4,55h0c0,27.6,22.4,50,50,50h0c27.6,0,50-22.4,50-50h0c0-27.6-22.4-50-50-50Z"></path><path id="S" class="st1" d="M80,74.2c-4.7,5.2-13.2,13.4-13.6,13.7-1.1,1.1-2.6,1.6-4,1.6s-3-.6-4.2-1.8c-2.2-2.3-2.1-6,.2-8.2,0,0,8.6-8.2,13-13.1,2.1-2.3,3.2-5.3,3-8.4-.2-3.3-1.8-6.3-4.4-8.6-3.5-3-10.4-3.7-14.7.2-2.6,2.3-5.7,5.7-5.7,5.7-2.2,2.3-5.8,2.5-8.2.3-2.3-2.2-2.5-5.8-.3-8.2.1-.2,3.5-3.8,6.5-6.5,8.2-7.4,21.7-7.5,30-.3,5,4.4,8,10.3,8.4,16.7.4,6.2-1.7,12.2-6,16.9M45.1,74.7c-5.3,0-10.7-1.8-14.8-5.3-5-4.4-8-10.3-8.4-16.7-.4-6.2,1.7-12.2,6-16.9,4.7-5.2,13.2-13.4,13.6-13.7,2.3-2.2,6-2.1,8.2.2,2.2,2.3,2.1,6-.2,8.2,0,0-8.6,8.2-13,13.1-2.1,2.3-3.2,5.3-3,8.4.2,3.3,1.8,6.3,4.4,8.7,3.5,3,10.4,3.7,14.7-.2,2.6-2.3,5.7-5.7,5.7-5.7,2.2-2.4,5.8-2.5,8.2-.3,2.3,2.2,2.5,5.8.3,8.2-.1.1-3.5,3.8-6.5,6.5-4.2,3.8-9.7,5.6-15.2,5.6"></path></g></g></g></svg> 