<?xml version="1.0" encoding="UTF-8"?> <svg xmlns="http://www.w3.org/2000/svg" id="Layer_1" version="1.1" viewBox="0 0 131 31.8"><defs><style> .st0 { fill: #fe2c55; } .st1 { fill: #25f4ee; } </style></defs><g id="LOGOS"><g><g><path class="st1" d="M16.7,11.2v-1.2h-1.2c-4.8,0-8.6,3.8-8.6,8.6s1.3,5.5,3.6,7.1c-3.3-3.5-3.1-8.9.4-12.2,1.5-1.4,3.6-2.3,5.7-2.3h0Z"></path><path class="st1" d="M16.9,23.7c2.1,0,3.8-1.6,3.9-3.7V1.2h3.5c0-.4,0-.8,0-1.2h-4.7v18.8c0,2.1-1.8,3.7-3.9,3.7s-1.2-.2-1.8-.5c.8,1.1,1.9,1.6,3.2,1.6Z"></path><path class="st1" d="M30.7,7.6v-1.1c-1.2,0-2.5-.4-3.6-1.1,1,1.1,2.2,1.8,3.6,2.1Z"></path><path class="st0" d="M27.1,5.5c-1.1-1.2-1.6-2.7-1.6-4.3h-1.2c.3,1.7,1.3,3.3,2.9,4.3Z"></path><path class="st0" d="M15.6,14.7c-2.2,0-3.9,1.8-3.9,3.9s.9,2.8,2.1,3.5c-.5-.7-.8-1.4-.8-2.3,0-2.2,1.7-3.9,3.9-3.9s.8,0,1.2.2v-4.8h-1.3v3.6c-.4,0-.8-.2-1.2-.2Z"></path><path class="st0" d="M30.7,7.6v3.6c-2.3,0-4.6-.8-6.5-2.1v9.5c0,4.8-3.8,8.6-8.6,8.6s-3.5-.6-5-1.5c3.3,3.5,8.6,3.6,12.2.5,1.7-1.6,2.8-3.9,2.8-6.3v-9.5c1.9,1.3,4.2,2.1,6.5,2.1v-4.7c-.5,0-1,0-1.3-.2Z"></path><path d="M24.2,18.6v-9.5c1.9,1.3,4.2,2.1,6.5,2.1v-3.6c-1.3-.3-2.7-1.1-3.6-2.1-1.5-1-2.5-2.5-2.9-4.3h-3.4v18.8c0,2.2-1.8,3.8-4,3.8s-2.4-.7-3.2-1.7c-1.9-1-2.7-3.4-1.6-5.3.7-1.2,2-2.1,3.5-2.1s.8,0,1.2.2v-3.6c-4.8,0-8.5,4-8.4,8.8,0,2.1.9,4.1,2.3,5.7,3.9,2.7,9.2,1.8,12-2.1,1.1-1.4,1.5-3.2,1.5-5h0Z"></path></g><g><path d="M36.7,7.6h14.6l-1.3,4.2h-3.8v15.5h-4.7v-15.6h-4.8v-4.2h0Z"></path><path d="M75.3,7.6h15l-1.3,4.2h-4.1v15.5h-4.7v-15.6h-4.8v-4.2h0Z"></path><polygon points="52.3 13.8 57 13.8 56.9 27.3 52.3 27.3 52.3 13.8"></polygon><path d="M58.8,7.5h4.7v9.1l4.6-4.6h5.6l-5.9,5.7,6.6,9.4h-5.2l-4.4-6.5-1.3,1.3v5.2h-4.7s0-19.6,0-19.6Z"></path><path d="M108.4,7.5h4.7v9.1l4.6-4.6h5.6l-5.9,5.7,6.6,9.4h-5.2l-4.4-6.5-1.3,1.3v5.2h-4.7s0-19.6,0-19.6Z"></path><circle cx="54.6" cy="9.9" r="2.4"></circle><path class="st1" d="M89.7,19.2c0-4.2,3.3-7.7,7.4-8h-.7c-4.4,0-8.1,3.6-8.1,8.1s3.6,8.1,8.1,8.1h.7c-4.2-.4-7.4-3.8-7.4-8.1h0Z"></path><path class="st0" d="M98.9,11.2h-.7c4.4.5,7.6,4.4,7.2,8.8-.4,3.7-3.4,6.7-7.2,7.2h.7c4.4,0,8.1-3.6,8.1-8.1s-3.6-8.1-8.1-8.1h0Z"></path><path d="M97.7,23.1c-2.1,0-3.9-1.7-3.9-3.9s1.7-3.9,3.9-3.9,3.9,1.7,3.9,3.9h0c0,2.1-1.7,3.9-3.9,3.9h0ZM97.7,11.2c-4.4,0-8.1,3.6-8.1,8.1s3.6,8.1,8.1,8.1,8.1-3.6,8.1-8.1-3.6-8.1-8.1-8.1Z"></path></g></g></g></svg> 